<?xml version="1.0" encoding="UTF-8"?>
<!-- Generator: Adobe Illustrator 25.0.1, SVG Export Plug-In . SVG Version: 6.00 Build 0)  -->
<svg xmlns="http://www.w3.org/2000/svg" xmlns:xlink="http://www.w3.org/1999/xlink" version="1.1" id="Capa_2" x="0px" y="0px" viewBox="0 0 520 120" style="enable-background:new 0 0 520 120;" xml:space="preserve">
<style type="text/css">
	.st0{fill:none;}
	.st1{fill:#FFFFFF;}
	.st2{opacity:0.5;}
	.st3{opacity:0.5;fill:#FFFFFF;}
</style>
<g>
	<g>
		<g>
			<g>
				<path class="st0" d="M95,62v-6.2c-1.5,0-3.2,0-4.8,0C90.5,57.7,93.5,61.2,95,62z"></path>
				<path class="st0" d="M95,62c0-2.2,0-4.3,0-6.5l0,0V62C95,62,95,62,95,62z"></path>
				<g>
					<path class="st1" d="M145.5,33.7c-3.8,0-7.6,0-11.4,0c-0.1,0.4-0.1,1-0.2,1.6c-0.3,3.2-0.5,6.3-0.9,9.5       c-1.4,10.9-5,21-10.9,30.3c-5.9,9.2-13.4,17-21.7,24c-1.8,1.5-3.6,3-5.4,4.5c0,0,0-0.1,0-0.1v14.4c0,0,0,0,0,0.1       c0.3-0.2,0.5-0.3,0.7-0.5c9.3-6.5,17.9-13.7,25.6-22.1c10.3-11.3,17.9-24.1,21.5-39.1c1.8-7.3,2.7-14.6,2.9-22.1       C145.7,33.8,145.6,33.7,145.5,33.7z"></path>
					<path class="st1" d="M95.7,15.9c8.6,4.2,17.6,7.3,26.9,9.2c3.9,0.8,7.8,1.5,11.8,1.9c3.4,0.3,7.1,0.1,10.5,0.1       c0.3,0,1.2-0.1,1.2-0.1c0-3.6,0-7,0-10.6c-18.7-1.1-35.3-5-50.9-14.2c0,0-0.3,0-0.3,0v13.5C95.4,15.7,95.5,15.8,95.7,15.9z"></path>
					<path class="st1" d="M109.6,82.2c7.2-7.5,12.5-15.8,14.8-26.1c0.4-1.6,0.6-3,1-4.9c-4.1,0-7.9,0-11.8,0       c-2.1,12.6-9.3,21.2-18.6,28.9c0,0,0.1-0.2,0.1-0.2v14.6c0.4-0.2,0.5-0.4,0.8-0.5C100.8,90.4,105.4,86.6,109.6,82.2z"></path>
					<path class="st1" d="M95.8,36.1c3.2,1.1,6.2,2.4,9.4,3.4c3.1,0.9,6.2,1.7,9.3,2.1c3.5,0.4,7.2,0.1,10.7,0.1       c0.3,0,0.6-0.1,1-0.2c0-3.5,0-6.8,0-10.2c-11.1-0.6-21.6-3.1-31.2-8.7c0,0-0.2,0-0.2,0v13.4C95.4,35.9,95.5,36,95.8,36.1z"></path>
					<path class="st1" d="M105.2,57.6c1.4-4,1.5-8,1.2-12.2c-4.1-0.3-7.8-1.1-11.4-3.2c0,0,0,0,0,0v13.6l0,0l0,0c0,0-0.1,0-0.1,0       c0-2.3,0-4.4,0.1-6.5c0-0.1,0.1-0.2,0.1-0.3c1.8,0.6,3.6,1.2,5.6,1.8c-0.3,1.6-0.5,3-0.8,5c-1.8,0-2.9,0-4.8,0l0,0l0,0       c0,0,0,4,0,6.2c0,0,0,0,0,0v7.6c0,0,0,0.1,0.1,0.1C99.5,66.6,103.3,62.9,105.2,57.6z"></path>
				</g>
				<g>
					<g class="st2">
						<path class="st1" d="M94,102.8c-6.4-5-12.5-10.4-17.9-16.5c-4.8-5.4-9-11.3-12.3-17.8c-5-10-7.4-20.6-8-31.8        c-0.1-1.1-0.2-2.3-0.3-3.1c-3.8,0-7.5,0-11.6,0c0.3,3.4,0.6,7.6,1,11.4c1.6,13.5,6,26,13.5,37.4c3.7,5.6,8,10.8,12.7,15.7        c7,7.2,14.8,13.5,22.9,19.2c0.2,0.2,0.4,0.3,0.8,0.4v-14.4C94.6,103.2,94.3,103,94,102.8z"></path>
						<path class="st1" d="M43.8,16.4c0,3.5,0,6.9,0,10.5c4.2,0,8.2,0.4,12.1-0.1c13.2-1.5,26.1-5.1,38.1-11        c0.2-0.1,0.6-0.2,0.9-0.2V2.2C79.4,11.5,62.6,15.4,43.8,16.4z"></path>
						<path class="st1" d="M76.1,51.2c-4,0-7.8,0-11.5,0c-0.1,0-0.1,0.1-0.1,0.2c0,0.2,0,0.4,0.1,0.5c1.1,6.9,3.4,13.3,7,19.2        c4.6,7.4,10.6,13.5,17.3,18.9c1.9,1.5,4,3,6,4.4c0,0,0.1,0,0.1,0V79.9C85.8,72.2,78.2,63.8,76.1,51.2z"></path>
						<path class="st1" d="M64.1,31.3c0,3.5,0,6.8,0,10.3c1.5,0,3.2,0,4.8,0c2.4,0,4.8,0.2,7.1-0.1c6.2-0.9,12.3-2.8,18-5.3        c0.2-0.1,0.5-0.2,0.9-0.2V22.6C85.5,28.2,75.5,30.6,64.1,31.3z"></path>
					</g>
					<path class="st3" d="M90.2,55.8c1.5,0,3.3,0,4.8,0V42.2c-3.4,2.1-7.4,2.9-11.3,3.2c-2.1,8.4,3.7,20.3,11.3,24.1V62       C93.5,61.2,90.5,57.7,90.2,55.8z"></path>
				</g>
				<polygon points="94.9,55.6 94.9,55.6 94.9,55.6 94.9,55.6     "></polygon>
			</g>
			<g>
				<path class="st1" d="M18.9,57.5c0.6,0,1.2,0,1.9,0c5.9,0,11.8,0.1,17.6,0.1c2,0,4,0,5.9,0c0.9,0,1.4,0.3,1.6,1.2      c0.3,1.2,0.8,2.3,1.2,3.4c0.2,0.5,0.2,1,0.4,1.7c-2.1,0-4.1,0-6,0c-2.2,0-4.5,0-6.7,0c-2.5,0-4.9,0-7.4,0c-2.7,0-5.4-0.1-8,0      c-0.5,0-1.1,0.7-1.5,1.2c-2.8,4.2-8,5.2-12,2.3C3,65.3,1.8,61,3.3,57.4c1.5-3.5,5.4-5.6,9.2-4.9c2.5,0.4,4.3,1.8,5.7,3.9      C18.4,56.7,18.6,57.1,18.9,57.5z M11,63.6c1.6,0,2.9-1.3,2.9-2.8c0-1.6-1.4-3-3-2.9c-1.6,0-2.8,1.3-2.8,2.9      C8.2,62.4,9.4,63.6,11,63.6z"></path>
				<path class="st1" d="M35.3,73.6c5.5,0,11.1,0,16.6,0c1.1,2.1,2.2,4,3.4,6.2c-6.8,0-13.5,0-20.2,0c-1.6,3-3.9,5-7.4,5.2      c-2.5,0.2-4.6-0.7-6.4-2.5c-3.2-3.1-3.2-9.5,0.6-12.3C25.7,67.5,31.3,67.1,35.3,73.6z M27.3,73.8c-1.6,0-3,1.7-3,3.3      c0,1.3,1.7,2.6,3.1,2.6c1.6-0.1,2.9-1.4,2.9-2.9C30.3,75.2,28.7,73.7,27.3,73.8z"></path>
				<path class="st1" d="M43.5,47.8c-2.9,0-5.5,0-7.6,0c-1.9,1.7-3.2,3.3-4.9,4.2c-2.9,1.7-6.3,1.2-9-1c-2.5-2.1-3.6-5.5-2.7-8.6      c1-3.5,3.4-5.6,6.9-6.1c3.6-0.5,6.4,1,8.3,4c0.5,0.8,1.1,1.1,2,1.1c1.6-0.1,3.3,0,4.9,0c1,0,1.4,0.4,1.4,1.4      C43,44.4,43.2,46,43.5,47.8z M27.3,47.5c1.6,0,3-1.2,3-2.8c0.1-1.5-1.4-3-3-3c-1.6,0-2.9,1.2-2.9,2.8      C24.4,46.2,25.7,47.5,27.3,47.5z"></path>
			</g>
			<g class="st2">
				<path class="st1" d="M171.9,56.4c1.3-2.1,3.2-3.4,5.7-3.9c3.8-0.6,7.7,1.4,9.2,4.9c1.5,3.6,0.3,7.8-2.8,10      c-4,2.9-9.2,1.8-12-2.3c-0.3-0.5-1-1.2-1.5-1.2c-2.7-0.1-5.3,0-8,0c-2.5,0-4.9,0-7.4,0c-2.2,0-4.5,0-6.7,0c-1.9,0-3.9,0-6,0      c0.2-0.7,0.2-1.2,0.4-1.7c0.4-1.1,0.9-2.2,1.2-3.4c0.2-1,0.7-1.3,1.6-1.2c2,0,4,0,5.9,0c5.9,0,11.8-0.1,17.6-0.1      c0.6,0,1.3,0,1.9,0C171.4,57.1,171.7,56.7,171.9,56.4z M181.9,60.7c0-1.6-1.2-2.9-2.8-2.9c-1.6,0-3,1.4-3,2.9      c0,1.5,1.4,2.8,2.9,2.8C180.7,63.6,181.9,62.4,181.9,60.7z"></path>
				<path class="st1" d="M168,70.3c3.8,2.8,3.8,9.2,0.6,12.3c-1.8,1.8-3.9,2.6-6.4,2.5c-3.5-0.2-5.8-2.2-7.4-5.2      c-6.7,0-13.3,0-20.2,0c1.2-2.2,2.3-4.2,3.4-6.2c5.6,0,11.1,0,16.6,0C158.7,67.1,164.3,67.5,168,70.3z M159.7,76.7      c0,1.5,1.3,2.9,2.9,2.9c1.4,0,3.1-1.3,3.1-2.6c0.1-1.6-1.4-3.3-3-3.3C161.3,73.7,159.8,75.2,159.7,76.7z"></path>
				<path class="st1" d="M147.2,42.8c0.1-1,0.4-1.4,1.4-1.4c1.6,0,3.3,0,4.9,0c0.9,0,1.5-0.3,2-1.1c1.9-3,4.7-4.6,8.3-4      c3.5,0.5,5.9,2.6,6.9,6.1c0.9,3.1-0.2,6.6-2.7,8.6c-2.7,2.2-6.2,2.7-9,1c-1.6-1-2.9-2.5-4.9-4.2c-2,0-4.7,0-7.6,0      C146.8,46,147,44.4,147.2,42.8z M165.6,44.6c0-1.6-1.3-2.8-2.9-2.8c-1.6,0-3,1.4-3,3c0.1,1.6,1.4,2.8,3,2.8      C164.4,47.5,165.6,46.2,165.6,44.6z"></path>
			</g>
		</g>
		<g>
			<g>
				<path class="st3" d="M211.2,72.3V41.6h16.7v2.8h-13.7v8h13.7v2.8h-13.7v14.3h13.7v2.8H211.2z"></path>
				<path class="st3" d="M232.2,63.7h2.8c0.2,3.2,1.6,6.3,6.1,6.3c4.1,0,6.2-2.8,6.2-6.4c0-3.2-2.4-4.6-5-5.7      c-0.9-0.4-1.8-0.7-2.7-1c-3.6-1.4-6.7-3.1-6.7-7.6c0-4.9,3.5-8.3,8.6-8.3c5.4,0,7.6,3.2,8.1,8h-2.8c-0.4-2.6-1.4-5.2-5.3-5.2      c-3.3,0-5.6,2.3-5.6,5.4c0,3.2,2.8,4.4,5.5,5.3c2.5,0.8,5.7,1.6,7.4,3.7c1,1.2,1.5,2.8,1.5,4.8c0,5.6-3.3,9.9-9.3,9.9      C235.1,73,232.5,69,232.2,63.7z"></path>
				<path class="st3" d="M253,56.8c0-8.7,7.3-15.8,16.4-15.8c6.7,0,11.4,3.1,14.6,8.4h-3.6c-2.8-3.5-6.2-5.6-11.1-5.6      c-7.6,0-13.2,6-13.2,13c0,7.1,5.3,13.4,13.2,13.4c4,0,7.2-1.4,9.9-4.1c1.7-1.8,2.6-3.5,3.2-5.7h3.2c-1.9,7.3-7.9,12.6-16.1,12.6      C259.9,73,253,66,253,56.8z"></path>
				<path class="st3" d="M288.2,61.2V41.6h3v19.5c0,4.1,0.8,9.3,7.3,9.3c4.9,0,7.3-3.4,7.3-9.9V41.6h2.9v19.6c0,8-3.3,11.8-10,11.8      C290.7,73,288.2,68.3,288.2,61.2z"></path>
				<path class="st3" d="M321.8,72.3h-7.7V41.6h9.1c4.8,0,8.5,1,11,3c3.9,3.1,5.8,7.2,5.8,12.3c0,7.5-4.4,13.8-12,15.1      C326.5,72.3,324.5,72.3,321.8,72.3z M323,44.3h-6v25.3h6.8c8.4,0,13-4.8,13-12.8c0-5.3-2.8-10.8-8.8-12.1      C326.8,44.5,325.1,44.3,323,44.3z"></path>
				<path class="st3" d="M342.4,56.8c0-8.7,7.3-15.8,16.4-15.8c4.5,0,8.4,1.5,11.6,4.5c3.3,3.1,4.9,6.8,4.9,11.3      c0,9-7,16.2-16.6,16.2C349.2,73,342.4,65.9,342.4,56.8z M345.6,56.8c0,7.3,5.5,13.4,13.5,13.4c3.8,0,7.1-1.3,9.6-4      c2.4-2.6,3.7-5.8,3.7-9.5c0-7.1-6-13-13.5-13C351.3,43.8,345.6,50.1,345.6,56.8z"></path>
				<path class="st1" d="M390.5,56.8c0-8.7,7.3-15.8,16.4-15.8c6.7,0,11.4,3.1,14.6,8.4H418c-2.8-3.5-6.2-5.6-11.1-5.6      c-7.6,0-13.2,6-13.2,13c0,7.1,5.3,13.4,13.2,13.4c4,0,7.2-1.4,9.9-4.1c1.7-1.8,2.6-3.5,3.2-5.7h3.2c-1.9,7.3-7.9,12.6-16.1,12.6      C397.3,73,390.5,66,390.5,56.8z"></path>
				<path class="st1" d="M426.4,72.3V41.6h3v30.7H426.4z"></path>
				<path class="st1" d="M435.3,72.3V41.6h6c4.9,0,10.3,1.5,10.3,6.4c0,1.9-0.7,3.2-3.2,5.2c2.3,1.2,3.2,2,3.9,3      c1.2,1.7,1.8,3.6,1.8,6c0,7.4-4.1,10.2-11.7,10.2H435.3z M438.1,44.3v8.1h2c3.2,0,5.4-0.4,6.7-1.3c1.3-0.9,1.8-1.4,1.8-3      c0-3.4-5.6-3.8-7.7-3.8H438.1z M442.7,55.1h-4.6v14.5h4.6c2.6,0,4.6-0.5,5.9-1.5c3.1-2.4,3-9.2,0-11.6      C447.3,55.6,445.3,55.1,442.7,55.1z"></path>
				<path class="st1" d="M458.2,72.3V41.6h16.7v2.8h-13.7v8h13.7v2.8h-13.7v14.3h13.7v2.8H458.2z"></path>
				<path class="st1" d="M496.5,72.3l-10.1-17h2.9c3.2,0,7.1-2,7.1-5.9c0-4.8-5.8-5-9.2-5h-4.8v27.9h-2.9V41.6h8.6      c4.1,0,8,0.8,10,4.1c1.6,2.4,1.4,5.5,0,8c-1.1,2-2.9,3.3-6.6,4.3l8.4,14.3H496.5z"></path>
			</g>
			<g>
				<path class="st1" d="M517.4,44.1c0,3.5-2.7,6.2-6.3,6.2c-3.5,0-6.3-2.7-6.3-6.2c0-3.4,2.8-6.1,6.3-6.1      C514.6,37.9,517.4,40.7,517.4,44.1z M506.3,44.1c0,2.7,2,4.9,4.8,4.9c2.7,0,4.7-2.2,4.7-4.9c0-2.7-2-4.9-4.7-4.9      C508.4,39.2,506.3,41.4,506.3,44.1z M510.1,47.3h-1.4v-6.1c0.6-0.1,1.3-0.2,2.4-0.2c1.2,0,1.7,0.2,2.1,0.4      c0.3,0.3,0.6,0.7,0.6,1.3c0,0.7-0.5,1.2-1.3,1.4v0.1c0.6,0.2,0.9,0.7,1.1,1.5c0.2,0.9,0.3,1.3,0.4,1.5h-1.5      c-0.2-0.2-0.3-0.8-0.5-1.5c-0.1-0.7-0.5-1-1.3-1h-0.7V47.3z M510.2,43.8h0.7c0.8,0,1.4-0.3,1.4-0.9c0-0.6-0.4-0.9-1.3-0.9      c-0.4,0-0.6,0-0.8,0.1V43.8z"></path>
			</g>
		</g>
	</g>
</g>
</svg>
